<?xml version="1.0" encoding="UTF-8" standalone="no"?>
<svg width="256px" height="256px" viewBox="0 0 256 256" version="1.1" xmlns="http://www.w3.org/2000/svg" xmlns:xlink="http://www.w3.org/1999/xlink">
    <!-- Generator: Sketch 3.6.1 (26313) - http://www.bohemiancoding.com/sketch -->
    <title>game_icon_rightWalk</title>
    <desc>Created with Sketch.</desc>
    <defs></defs>
    <g id="Page-1" stroke="none" stroke-width="1" fill="none" fill-rule="evenodd">
        <g id="game_icon_rightWalk" fill="#000000">
            <g id="spark_light" transform="translate(128.000000, 124.000000) scale(-1, 1) translate(-128.000000, -124.000000) translate(75.000000, 71.000000)">
                <g id="Group">
                    <g id="Shape">
                        <path d="M59.3399778,22.5722967 C59.3399778,26.068022 56.4991778,28.8970549 53,28.8970549 L53,28.8970549 C49.5008222,28.8970549 46.6635556,26.0668462 46.6635556,22.5722967 L46.6635556,6.46703297 C46.6635556,2.97365934 49.5008222,0.142274725 53,0.142274725 L53,0.142274725 C56.4991778,0.142274725 59.3399778,2.97483516 59.3399778,6.46703297 L59.3399778,22.5722967 L59.3399778,22.5722967 Z"></path>
                        <path d="M35.8939556,27.0274945 C38.3672889,29.4990769 38.3649333,33.5027582 35.8939556,35.9672857 L35.8939556,35.9672857 C33.4182667,38.4412198 29.4079333,38.4412198 26.9322444,35.9672857 L15.5278222,24.5841319 C13.0521333,22.1125495 13.0521333,18.1112198 15.5278222,15.6372857 L15.5278222,15.6372857 C18.0011556,13.1704066 22.0091333,13.1657033 24.4848222,15.6372857 L35.8939556,27.0274945 L35.8939556,27.0274945 Z"></path>
                        <path d="M22.4684667,46.7260769 C25.97,46.7260769 28.8037333,49.5562857 28.8037333,53.052011 L28.8037333,53.052011 C28.8037333,56.5406813 25.9688222,59.3744176 22.4684667,59.3744176 L6.33644444,59.3744176 C2.83491111,59.3744176 0,56.5406813 0,53.0473077 L0,53.0473077 C0.00353333333,49.5562857 2.83491111,46.7260769 6.33526667,46.7260769 L22.4684667,46.7260769 L22.4684667,46.7260769 Z"></path>
                        <path d="M26.9322444,70.1273297 C29.4079333,67.6557473 33.4135556,67.6557473 35.8939556,70.132033 L35.8939556,70.132033 C38.3649333,72.5989121 38.3649333,76.6049451 35.8868889,79.0753516 L24.4848222,90.4643846 C22.0091333,92.9312637 17.9940889,92.9312637 15.5184,90.4643846 L15.5184,90.4643846 C13.0521333,87.9928022 13.0474222,83.9914725 15.5231111,81.5210659 L26.9322444,70.1273297 L26.9322444,70.1273297 Z"></path>
                        <path d="M46.6635556,83.527022 C46.6635556,80.0336484 49.4984667,77.2093187 53,77.2093187 L53,77.2093187 C56.4921111,77.2046154 59.3399778,80.0383516 59.3399778,83.5317253 L59.3305556,99.6346374 C59.3399778,103.128011 56.4921111,105.965275 52.9905778,105.965275 L52.9905778,105.965275 C49.4984667,105.955868 46.6635556,103.132714 46.6635556,99.6346374 L46.6635556,83.527022 L46.6635556,83.527022 Z"></path>
                        <path d="M70.1048667,79.0753516 C67.6256444,76.6037692 67.6338889,72.6024396 70.1095778,70.1273297 L70.1095778,70.1273297 C72.5805556,67.6604505 76.5932444,67.6557473 79.0677556,70.132033 L90.4745333,81.5210659 C92.9455111,83.9879451 92.9455111,88.0033846 90.4745333,90.4737912 L90.4745333,90.4737912 C87.9988444,92.9312637 83.9920444,92.9312637 81.5163556,90.4643846 L70.1048667,79.0753516 L70.1048667,79.0753516 Z"></path>
                        <path d="M83.5327111,59.3791209 C80.0335333,59.3791209 77.1939111,56.5406813 77.1939111,53.0473077 L77.1939111,53.0473077 C77.1939111,49.5656923 80.0335333,46.7260769 83.5327111,46.7260769 L99.6623778,46.7260769 C103.156844,46.7260769 106,49.5656923 106,53.0567143 L106,53.0567143 C105.990578,56.5453846 103.166267,59.3744176 99.6623778,59.3744176 L83.5327111,59.3791209 L83.5327111,59.3791209 Z"></path>
                        <path d="M79.0689333,35.9672857 C76.5932444,38.4412198 72.5805556,38.4412198 70.1060444,35.9672857 L70.1060444,35.9672857 C67.6350667,33.5074615 67.6350667,29.4943736 70.1107556,27.0204396 L81.5175333,15.6372857 C83.9849778,13.1704066 88.0106222,13.1704066 90.4851333,15.641989 L90.4851333,15.641989 C92.9466889,18.1135714 92.9466889,22.109022 90.4757111,24.5841319 L79.0689333,35.9672857 L79.0689333,35.9672857 Z"></path>
                    </g>
                    <ellipse id="Oval" cx="53.6218667" cy="53.5587912" rx="12.6552222" ry="12.6342308"></ellipse>
                </g>
            </g>
            <g id="circular_arrow" transform="translate(128.500000, 124.500000) scale(-1, 1) translate(-128.500000, -124.500000) translate(14.000000, 15.000000)">
                <g id="Group">
                    <path d="M71.1973395,10.8281462 C37.0856281,27.1700544 19.1307072,58.2856907 13.8351707,93.0296097 L0.330195105,93.0296097 L24.1760112,136.576169 L47.3474037,93.0296071 L33.3127085,93.0296097 C38.1782215,71.5315128 46.4501152,39.6368408 76.611145,25.0264912 C113.760392,7.03096876 174.461014,15.1429462 202.605606,69.2296448 C230.750198,123.316343 196.938464,176.460205 158.65639,195.098389 C148.60916,199.990029 129.35809,202.12367 118.868362,202.276596 L118.868362,218.081223 C134.479986,217.930362 151.361356,216.305269 166.37004,209.115087 C221.180185,182.856839 244.303626,117.188647 218.020706,62.4301231 C199.130161,23.0724663 159.818528,0.0763880315 118.868363,0.000190352983 C102.844386,-0.0296271303 86.6126915,3.44300116 71.1973395,10.8281462 Z" id="Shape"></path>
                </g>
            </g>
        </g>
    </g>
</svg>