<?xml version="1.0" encoding="UTF-8" standalone="no"?>
<svg width="256px" height="256px" viewBox="0 0 256 256" version="1.1" xmlns="http://www.w3.org/2000/svg" xmlns:xlink="http://www.w3.org/1999/xlink">
    <!-- Generator: Sketch 3.6.1 (26313) - http://www.bohemiancoding.com/sketch -->
    <title>game_icon_rainbow</title>
    <desc>Created with Sketch.</desc>
    <defs></defs>
    <g id="Page-1" stroke="none" stroke-width="1" fill="none" fill-rule="evenodd">
        <g id="game_icon_rainbow" fill="#000000">
            <g id="narwhal_rainbow" transform="translate(21.000000, 51.000000)">
                <g id="Page-1">
                    <g id="narwhal_rainbow">
                        <path d="M1.45244444,0.293393939 C1.45244444,0.293393939 12.1021111,25.5686061 18.0886667,39.0991515 C20.0547222,43.5399091 21.5167222,46.7166667 21.9347778,47.3175455 C23.2438889,49.1991818 26.0030556,50.3746061 31.089,47.3175455 C36.1749444,44.2604848 37.0922778,40.3248485 35.8835,38.0003333 C35.5156111,37.2917273 33.2533333,34.6607879 30.0522222,31.0938182 C20.2052222,20.12 1.45244444,0.293393939 1.45244444,0.293393939 L1.45244444,0.293393939 L1.45244444,0.293393939 Z" id="Shape"></path>
                        <path d="M161.551,73.3037576 C172.231722,90.7579697 181.311889,112.298636 193.4785,120.722909 C201.211333,126.080545 221.588556,126.408515 212.8715,134.270212 C210.391833,136.506152 193.586,138.416515 193.586,138.416515 C193.586,138.416515 190.523444,159.018758 186.068167,152.394727 C179.312389,142.349758 162.391889,120.227364 146.419778,119.681545 C131.0425,119.152485 99.3849444,127.533667 80.7755,127.533667 C58.4704444,127.533667 38.9054444,121.876788 24.2878333,112.061636 C24.2878333,112.061636 11.7843889,117.67303 5.21255556,113.471667 C2.4725,111.721697 12.2788889,102.050182 12.2788889,102.050182 C4.25222222,93.628303 0,84.0429697 0,73.3037576 C0,43.3531818 36.1653889,19.0738485 80.7755,19.0738485 C125.385611,19.0738485 145.927667,47.7723939 161.551,73.3037576 L161.551,73.3037576 L161.551,73.3037576 Z M9.44327778,65.8059394 C7.87855556,65.8059394 6.61005556,67.0771212 6.61005556,68.6451515 C6.61005556,70.2131818 7.87855556,71.4843636 9.44327778,71.4843636 C11.008,71.4843636 12.2765,70.2131818 12.2765,68.6451515 C12.2765,67.0771212 11.008,65.8059394 9.44327778,65.8059394 L9.44327778,65.8059394 L9.44327778,65.8059394 Z M53.0261667,65.8059394 C51.4614444,65.8059394 50.1929444,67.0771212 50.1929444,68.6451515 C50.1929444,70.2131818 51.4614444,71.4843636 53.0261667,71.4843636 C54.5908889,71.4843636 55.8593889,70.2131818 55.8593889,68.6451515 C55.8593889,67.0771212 54.5908889,65.8059394 53.0261667,65.8059394 L53.0261667,65.8059394 L53.0261667,65.8059394 Z M31.5381111,48.0668485 C37.0683889,44.7416667 38.0669444,40.3080909 36.6575,37.5957576 C36.4186111,37.1361212 35.6876111,36.0612424 30.8477222,30.6700909 L29.2543333,31.534303 C33.8242778,36.6238182 34.9422778,38.0745455 35.1118889,38.4025152 C36.1582222,40.4110303 35.2050556,43.8247879 30.6422778,46.5682424 C26.8773889,48.8305152 24.1158333,48.914303 22.6538333,46.8172121 C22.4555556,46.5347273 21.6051111,44.8972727 18.7886111,38.5341818 L17.2955556,39.7694545 C20.2577778,46.4629091 20.9553333,47.4348485 21.2252778,47.8178788 C21.8177222,48.6677273 23.1650556,50.0538182 25.6447222,50.0538182 C27.1568889,50.0538182 29.0918889,49.5367273 31.5381111,48.0668485 L31.5381111,48.0668485 L31.5381111,48.0668485 Z M42.3502222,85.3883636 C42.3502222,84.6653939 41.7649444,84.0764848 41.0435,84.0764848 C40.3220556,84.0764848 39.7367778,84.6653939 39.7367778,85.3883636 C39.7367778,88.1892727 36.1940556,90.5568788 32.0015556,90.5568788 C27.8090556,90.5568788 24.2639444,88.1892727 24.2639444,85.3883636 C24.2639444,84.6653939 23.6786667,84.0764848 22.9572222,84.0764848 C22.2357778,84.0764848 21.6505,84.6653939 21.6505,85.3883636 C21.6505,89.6830909 26.2945,93.1782424 32.0015556,93.1782424 C37.7062222,93.1782424 42.3502222,89.6830909 42.3502222,85.3883636 L42.3502222,85.3883636 L42.3502222,85.3883636 Z M82.3665,102.773152 C83.0210556,102.469121 83.3101111,101.691091 83.0067222,101.032758 C82.7033333,100.374424 81.9269444,100.084758 81.27,100.391182 C81.1983333,100.424697 73.8453333,103.764242 65.5797778,102.935939 C65.102,102.885667 63.9744444,102.718091 63.8000556,102.186636 C63.2816667,100.604242 66.9414444,95.921697 70.6824444,92.5438485 C71.2175556,92.0578788 71.2629444,91.2295758 70.778,90.6933333 C70.2954444,90.154697 69.4688889,90.1116061 68.9313889,90.5975758 C66.8172222,92.5055455 60.0184444,99.0386061 61.3156111,103.007758 C61.6452778,104.015606 62.608,105.274818 65.3193889,105.547727 C66.3322778,105.648273 67.3284444,105.696152 68.3031111,105.696152 C75.9403889,105.691364 82.0750556,102.904818 82.3665,102.773152 L82.3665,102.773152 L82.3665,102.773152 Z" id="Shape"></path>
                        <path id="Shape" d="M17.8258889,16.9121212 L8.86516667,16.9121212 L8.4925,16.9121212 L17.0136667,16.9121212 L17.8258889,16.9121212 L17.8258889,16.9121212 Z"></path>
                    </g>
                </g>
            </g>
        </g>
    </g>
</svg>