<?xml version="1.0" encoding="UTF-8" standalone="no"?>
<svg width="256px" height="256px" viewBox="0 0 256 256" version="1.1" xmlns="http://www.w3.org/2000/svg" xmlns:xlink="http://www.w3.org/1999/xlink">
    <!-- Generator: Sketch 3.6.1 (26313) - http://www.bohemiancoding.com/sketch -->
    <title>game_icon_strongToggle</title>
    <desc>Created with Sketch.</desc>
    <defs></defs>
    <g id="Page-1" stroke="none" stroke-width="1" fill="none" fill-rule="evenodd">
        <g id="game_icon_strongToggle" fill="#000000">
            <g id="strong_circle" transform="translate(31.000000, 31.000000)">
                <g id="Group">
                    <path d="M141.94398,11.0034037 C134.99296,6.95891989 134.99296,6.95891989 130.95,13.9158981 L126.90898,20.8728764 C122.86796,27.9929543 122.86796,27.9929543 129.81898,32.0374381 L136.93296,36.081922 C143.88398,40.1264058 143.88398,40.1264058 147.92694,33.0082696 L151.96796,26.0512913 C156.00898,19.0943131 156.00898,19.0943131 149.05796,15.0478876 L141.94398,11.0034037 L141.94398,11.0034037 Z M185.91602,84.9477526 L177.83204,84.9477526 C169.74806,84.9477526 169.74806,84.9477526 169.74806,93.038662 L169.74806,101.129571 C169.74806,109.220481 169.74806,109.220481 177.83204,109.220481 L185.91602,109.220481 C194,109.220481 194,109.220481 194,101.129571 L194,93.038662 C194,84.9477526 194,84.9477526 185.91602,84.9477526 L185.91602,84.9477526 Z M101.04102,0 L92.95704,0 C84.875,0 84.875,0 84.875,8.09090937 L84.875,16.1818187 C84.875,24.2727281 84.875,24.2727281 92.95898,24.2727281 L101.04296,24.2727281 C109.12694,24.2727281 109.12694,24.2727281 109.12694,16.1818187 L109.12694,8.09090937 C109.125,0 109.125,0 101.04102,0 L101.04102,0 Z M52.05602,11.0034037 L44.94398,15.0478876 C37.99296,19.0923715 37.99296,19.0923715 42.03398,26.0512913 L46.075,33.0082696 C50.11602,40.1283475 50.11602,40.1283475 57.06898,36.081922 L64.18296,32.0374381 C71.13398,27.9929543 71.13398,27.9929543 67.09296,20.8728764 L63.05,13.9158981 C59.00898,6.95697823 59.00898,6.95697823 52.05602,11.0034037 L52.05602,11.0034037 Z M173.145,127.017763 C166.03102,122.973279 166.03102,122.973279 161.99,129.930257 L157.94898,137.050335 C153.90796,144.007314 153.90796,144.007314 161.02,148.053739 L167.97102,152.098223 C174.92204,156.142707 174.92204,156.142707 178.965,149.185729 L183.00602,142.065651 C187.04704,135.108672 187.04704,135.108672 180.09602,131.062247 L173.145,127.017763 L173.145,127.017763 Z M136.93102,158.08437 L129.81898,162.128854 C122.86796,166.173337 122.86796,166.173337 126.90898,173.293415 L130.95,180.250394 C134.99102,187.207372 134.99102,187.207372 141.94398,183.162888 L149.05796,179.118404 C156.00898,175.07392 156.00898,175.07392 151.96796,168.115 L147.925,161.158022 C143.88398,154.037944 143.88398,154.037944 136.93102,158.08437 L136.93102,158.08437 Z M26.02898,42.0700104 C19.07796,38.0255266 19.07796,38.0255266 15.035,44.9825048 L10.99398,52.1025827 C6.95296,59.0595609 6.95296,59.0595609 13.90398,63.1059864 L20.855,67.1504703 C27.96898,71.1949542 27.96898,71.1949542 32.01,64.2379759 L36.05102,57.117898 C40.09204,50.1609198 40.09204,50.1609198 32.98,46.1144943 L26.02898,42.0700104 L26.02898,42.0700104 Z M16.16602,84.9477526 L8.08398,84.9477526 C0,84.9477526 0,84.9477526 0,93.038662 L0,101.129571 C0,109.220481 0,109.220481 8.08398,109.220481 L16.16796,109.220481 C24.25194,109.220481 24.25194,109.220481 24.25194,101.129571 L24.25194,93.038662 C24.25,84.9477526 24.25,84.9477526 16.16602,84.9477526 L16.16602,84.9477526 Z M101.04102,169.895505 L92.95704,169.895505 C84.87306,169.895505 84.87306,169.895505 84.87306,177.986415 L84.87306,186.077324 C84.87306,194.168233 84.87306,194.168233 92.95704,194.168233 L101.04102,194.168233 C109.125,194.168233 109.125,194.168233 109.125,186.077324 L109.125,177.986415 C109.125,169.895505 109.125,169.895505 101.04102,169.895505 L101.04102,169.895505 Z M20.855,127.017763 L13.90398,131.062247 C6.95296,135.106731 6.95296,135.106731 10.99398,142.065651 L15.035,149.185729 C19.07602,156.142707 19.07602,156.142707 26.02898,152.098223 L32.98,148.051797 C40.09398,144.007314 40.09398,144.007314 36.05102,137.048394 L32.01,129.930257 C27.96898,122.971337 27.96898,122.971337 20.855,127.017763 L20.855,127.017763 Z M57.06898,158.08437 C50.11796,154.039886 50.11796,154.039886 46.075,161.158022 L42.03398,168.115 C37.99296,175.071979 37.99296,175.071979 44.94398,179.118404 L52.05796,183.162888 C59.00898,187.207372 59.00898,187.207372 63.05194,180.250394 L67.09296,173.293415 C71.13398,166.173337 71.13398,166.173337 64.18296,162.128854 L57.06898,158.08437 L57.06898,158.08437 Z M167.97102,42.0700104 L161.02,46.1144943 C153.90602,50.1589781 153.90602,50.1589781 157.94898,57.117898 L161.99,64.2379759 C166.03102,71.1949542 166.03102,71.1949542 173.145,67.1504703 L180.09602,63.1059864 C187.04704,59.0615026 187.04704,59.0615026 183.00602,52.1025827 L178.965,44.9825048 C174.92398,38.0235849 174.92398,38.0235849 167.97102,42.0700104 L167.97102,42.0700104 Z" id="Shape"></path>
                </g>
            </g>
        </g>
    </g>
</svg>