<?xml version="1.0" encoding="UTF-8" standalone="no"?>
<svg width="256px" height="256px" viewBox="0 0 256 256" version="1.1" xmlns="http://www.w3.org/2000/svg" xmlns:xlink="http://www.w3.org/1999/xlink">
    <!-- Generator: Sketch 3.6.1 (26313) - http://www.bohemiancoding.com/sketch -->
    <title>game_icon_breathing</title>
    <desc>Created with Sketch.</desc>
    <defs></defs>
    <g id="Page-1" stroke="none" stroke-width="1" fill="none" fill-rule="evenodd">
        <g id="game_icon_breathing" fill="#000000">
            <g id="heartBeat" transform="translate(32.000000, 53.000000)">
                <g id="Group">
                    <path d="M103.68,46.5 C103.04,45.2142857 98.3466667,44.3571429 96,44.3571429 C93.6533333,44.3571429 90.6666667,44.7857143 89.3866667,45.4285714 C88.1066667,46.0714286 87.2533333,50.7857143 87.2533333,53.1428571 C87.2533333,55.5 88.32,60.4285714 89.3866667,60.8571429 C90.6666667,61.5 93.44,61.9285714 96,61.9285714 C98.56,61.9285714 101.333333,61.5 102.613333,60.8571429 C103.893333,60.2142857 104.746667,55.5 104.746667,53.1428571 C104.746667,50.7857143 104.32,47.7857143 103.68,46.5 L103.68,46.5 Z" id="Shape"></path>
                    <path d="M103.68,68.3571429 C103.04,67.0714286 98.3466667,66.2142857 96,66.2142857 C93.6533333,66.2142857 90.6666667,66.6428571 89.3866667,67.2857143 C88.1066667,67.9285714 87.2533333,72.6428571 87.2533333,75 C87.2533333,77.3571429 88.32,82.2857143 89.3866667,82.7142857 C90.6666667,83.3571429 93.44,83.7857143 96,83.7857143 C98.56,83.7857143 101.333333,83.3571429 102.613333,82.7142857 C103.893333,82.0714286 104.746667,77.3571429 104.746667,75 C104.746667,72.6428571 104.32,69.6428571 103.68,68.3571429 L103.68,68.3571429 Z" id="Shape"></path>
                    <path d="M124.373333,67.2857143 C123.093333,66.6428571 120.32,66.2142857 117.76,66.2142857 C115.2,66.2142857 112.426667,66.6428571 111.146667,67.2857143 C109.866667,67.9285714 109.013333,72.6428571 109.013333,75 C109.013333,77.3571429 109.44,80.3571429 110.08,81.6428571 C110.72,82.9285714 115.413333,83.7857143 117.76,83.7857143 C120.106667,83.7857143 123.093333,83.3571429 124.373333,82.7142857 C125.653333,82.0714286 126.506667,77.3571429 126.506667,75 C126.506667,72.6428571 125.653333,67.7142857 124.373333,67.2857143 L124.373333,67.2857143 Z" id="Shape"></path>
                    <path d="M161.493333,66.2142857 C159.146667,66.2142857 154.24,67.2857143 153.813333,68.3571429 C153.173333,69.6428571 152.746667,72.4285714 152.746667,75 C152.746667,77.5714286 153.173333,80.3571429 153.813333,81.6428571 C154.453333,82.9285714 159.146667,83.7857143 161.493333,83.7857143 C163.84,83.7857143 166.826667,83.3571429 168.106667,82.7142857 C169.386667,82.0714286 170.24,77.3571429 170.24,75 C170.24,72.6428571 169.813333,69.6428571 169.173333,68.3571429 C168.746667,67.2857143 163.84,66.2142857 161.493333,66.2142857 L161.493333,66.2142857 Z" id="Shape"></path>
                    <path d="M168.106667,45.2142857 C166.826667,44.5714286 164.053333,44.1428571 161.493333,44.1428571 C158.933333,44.1428571 156.16,44.5714286 154.88,45.2142857 C153.6,45.8571429 152.746667,50.5714286 152.746667,52.9285714 C152.746667,55.2857143 153.173333,58.2857143 153.813333,59.5714286 C154.453333,60.8571429 159.146667,61.7142857 161.493333,61.7142857 C163.84,61.7142857 166.826667,61.2857143 168.106667,60.6428571 C169.386667,60 170.24,55.2857143 170.24,52.9285714 C170.24,50.5714286 169.173333,45.8571429 168.106667,45.2142857 L168.106667,45.2142857 Z" id="Shape"></path>
                    <path d="M125.653333,46.5 C125.013333,45.2142857 120.32,44.3571429 117.973333,44.3571429 C115.626667,44.3571429 112.64,44.7857143 111.36,45.4285714 C110.08,46.0714286 109.226667,50.7857143 109.226667,53.1428571 C109.226667,55.5 110.293333,60.4285714 111.36,60.8571429 C112.64,61.5 115.413333,61.9285714 117.973333,61.9285714 C120.533333,61.9285714 123.306667,61.5 124.586667,60.8571429 C125.866667,60.2142857 126.72,55.5 126.72,53.1428571 C126.72,50.7857143 126.08,47.7857143 125.653333,46.5 L125.653333,46.5 Z" id="Shape"></path>
                    <path d="M125.653333,24.6428571 C125.013333,23.3571429 120.32,22.5 117.973333,22.5 C115.626667,22.5 112.64,22.9285714 111.36,23.5714286 C110.08,24.2142857 109.226667,28.9285714 109.226667,31.2857143 C109.226667,33.6428571 109.653333,36.6428571 110.293333,37.9285714 C110.933333,39.2142857 115.626667,40.0714286 117.973333,40.0714286 C120.32,40.0714286 125.226667,39 125.653333,37.9285714 C126.08,36.8571429 126.72,33.8571429 126.72,31.2857143 C126.72,28.7142857 126.08,25.7142857 125.653333,24.6428571 L125.653333,24.6428571 Z" id="Shape"></path>
                    <path d="M169.173333,24.6428571 C168.533333,23.3571429 163.84,22.5 161.493333,22.5 C159.146667,22.5 154.24,23.5714286 153.813333,24.6428571 C153.173333,25.9285714 152.746667,28.7142857 152.746667,31.2857143 C152.746667,33.8571429 153.173333,36.6428571 153.813333,37.9285714 C154.453333,39.2142857 159.146667,40.0714286 161.493333,40.0714286 C163.84,40.0714286 166.826667,39.6428571 168.106667,39 C169.386667,38.3571429 170.24,33.6428571 170.24,31.2857143 C170.24,28.9285714 169.813333,25.7142857 169.173333,24.6428571 L169.173333,24.6428571 Z" id="Shape"></path>
                    <path d="M169.173333,2.57142857 C168.533333,1.28571429 163.84,0.428571429 161.493333,0.428571429 C159.146667,0.428571429 156.16,0.857142857 154.88,1.5 C153.6,2.14285714 152.746667,6.85714286 152.746667,9.21428571 C152.746667,11.5714286 153.813333,16.5 154.88,16.9285714 C155.946667,17.3571429 158.933333,18 161.493333,18 C164.053333,18 166.826667,17.5714286 168.106667,16.9285714 C169.386667,16.2857143 170.24,11.5714286 170.24,9.21428571 C170.24,6.85714286 169.813333,3.85714286 169.173333,2.57142857 L169.173333,2.57142857 Z" id="Shape"></path>
                    <path d="M183.253333,22.5 C180.906667,22.5 177.92,22.9285714 176.64,23.5714286 C175.36,24.2142857 174.506667,28.9285714 174.506667,31.2857143 C174.506667,33.6428571 175.573333,38.5714286 176.64,39 C177.92,39.6428571 180.693333,40.0714286 183.253333,40.0714286 C185.813333,40.0714286 188.586667,39.6428571 189.866667,39 C191.146667,38.3571429 192,33.6428571 192,31.2857143 C192,28.9285714 191.573333,25.9285714 190.933333,24.6428571 C190.293333,23.3571429 185.6,22.5 183.253333,22.5 L183.253333,22.5 Z" id="Shape"></path>
                    <path d="M183.253333,44.3571429 C180.906667,44.3571429 176,45.4285714 175.573333,46.5 C175.146667,47.5714286 174.506667,50.5714286 174.506667,53.1428571 C174.506667,55.7142857 174.933333,58.5 175.573333,59.7857143 C176.213333,61.0714286 180.906667,61.9285714 183.253333,61.9285714 C185.6,61.9285714 188.586667,61.5 189.866667,60.8571429 C191.146667,60.2142857 192,55.5 192,53.1428571 C192,50.7857143 191.573333,47.7857143 190.933333,46.5 C190.293333,45.2142857 185.6,44.3571429 183.253333,44.3571429 L183.253333,44.3571429 Z" id="Shape"></path>
                    <path d="M146.133333,67.2857143 C144.853333,66.6428571 142.08,66.2142857 139.52,66.2142857 C136.96,66.2142857 134.186667,66.6428571 132.906667,67.2857143 C131.626667,67.9285714 130.773333,72.6428571 130.773333,75 C130.773333,77.3571429 131.2,80.3571429 131.84,81.6428571 C132.48,82.9285714 137.173333,83.7857143 139.52,83.7857143 C141.866667,83.7857143 144.853333,83.3571429 146.133333,82.7142857 C147.413333,82.0714286 148.266667,77.3571429 148.266667,75 C148.266667,72.6428571 147.413333,67.7142857 146.133333,67.2857143 L146.133333,67.2857143 Z" id="Shape"></path>
                    <path d="M146.133333,45.2142857 C144.853333,44.5714286 142.08,44.1428571 139.52,44.1428571 C136.96,44.1428571 134.186667,44.5714286 132.906667,45.2142857 C131.626667,45.8571429 130.773333,50.5714286 130.773333,52.9285714 C130.773333,55.2857143 131.2,58.2857143 131.84,59.5714286 C132.48,60.8571429 137.173333,61.7142857 139.52,61.7142857 C141.866667,61.7142857 144.853333,61.2857143 146.133333,60.6428571 C147.413333,60 148.266667,55.2857143 148.266667,52.9285714 C148.266667,50.5714286 147.413333,45.8571429 146.133333,45.2142857 L146.133333,45.2142857 Z" id="Shape"></path>
                    <path d="M147.413333,24.6428571 C146.773333,23.3571429 142.08,22.5 139.733333,22.5 C137.386667,22.5 134.4,22.9285714 133.12,23.5714286 C131.84,24.2142857 130.986667,28.9285714 130.986667,31.2857143 C130.986667,33.6428571 132.053333,38.5714286 133.12,39 C134.4,39.6428571 137.173333,40.0714286 139.733333,40.0714286 C142.293333,40.0714286 145.066667,39.6428571 146.346667,39 C147.626667,38.3571429 148.48,33.6428571 148.48,31.2857143 C148.48,28.9285714 147.84,25.7142857 147.413333,24.6428571 L147.413333,24.6428571 Z" id="Shape"></path>
                    <path d="M147.413333,2.57142857 C146.773333,1.28571429 142.08,0.428571429 139.733333,0.428571429 C137.386667,0.428571429 134.4,0.857142857 133.12,1.5 C131.84,2.14285714 130.986667,6.85714286 130.986667,9.21428571 C130.986667,11.5714286 131.413333,14.5714286 132.053333,15.8571429 C132.693333,17.1428571 137.386667,18 139.733333,18 C142.08,18 146.986667,16.9285714 147.413333,15.8571429 C148.053333,14.5714286 148.48,11.7857143 148.48,9.21428571 C148.48,6.64285714 147.84,3.85714286 147.413333,2.57142857 L147.413333,2.57142857 Z" id="Shape"></path>
                    <path d="M139.733333,88.0714286 C137.386667,88.0714286 132.48,89.1428571 132.053333,90.2142857 C131.626667,91.2857143 130.986667,94.2857143 130.986667,96.8571429 C130.986667,99.4285714 131.413333,102.214286 132.053333,103.5 C132.693333,104.785714 137.386667,105.642857 139.733333,105.642857 C142.08,105.642857 145.066667,105.214286 146.346667,104.571429 C147.626667,103.928571 148.48,99.2142857 148.48,96.8571429 C148.48,94.5 148.053333,91.5 147.413333,90.2142857 C146.773333,89.1428571 142.08,88.0714286 139.733333,88.0714286 L139.733333,88.0714286 Z" id="Shape"></path>
                    <path d="M124.373333,126.642857 C125.653333,126 126.506667,121.285714 126.506667,118.928571 C126.506667,116.571429 126.08,113.571429 125.44,112.285714 C124.8,111 120.106667,110.142857 117.76,110.142857 C115.413333,110.142857 110.506667,111.214286 110.08,112.285714 C109.653333,113.357143 109.013333,116.357143 109.013333,118.928571 C109.013333,121.5 109.44,124.285714 110.08,125.571429 C110.72,126.857143 115.413333,127.714286 117.76,127.714286 C120.106667,127.714286 123.093333,127.071429 124.373333,126.642857 L124.373333,126.642857 Z" id="Shape"></path>
                    <path d="M96,132 C93.6533333,132 88.7466667,133.071429 88.32,134.142857 C87.68,135.428571 87.2533333,138.214286 87.2533333,140.785714 C87.2533333,143.357143 87.68,146.142857 88.32,147.428571 C88.96,148.714286 93.6533333,149.571429 96,149.571429 C98.3466667,149.571429 101.333333,149.142857 102.613333,148.5 C103.893333,147.857143 104.746667,143.142857 104.746667,140.785714 C104.746667,138.428571 104.32,135.428571 103.68,134.142857 C103.253333,133.071429 98.3466667,132 96,132 L96,132 Z" id="Shape"></path>
                    <path d="M124.373333,89.1428571 C123.093333,88.5 120.32,88.0714286 117.76,88.0714286 C115.2,88.0714286 112.426667,88.5 111.146667,89.1428571 C109.866667,89.7857143 109.013333,94.5 109.013333,96.8571429 C109.013333,99.2142857 109.44,102.214286 110.08,103.5 C110.72,104.785714 115.413333,105.642857 117.76,105.642857 C120.106667,105.642857 123.093333,105.214286 124.373333,104.571429 C125.653333,103.928571 126.506667,99.2142857 126.506667,96.8571429 C126.506667,94.5 125.653333,89.5714286 124.373333,89.1428571 L124.373333,89.1428571 Z" id="Shape"></path>
                    <path d="M102.613333,89.1428571 C101.333333,88.5 98.56,88.0714286 96,88.0714286 C93.44,88.0714286 90.6666667,88.5 89.3866667,89.1428571 C88.1066667,89.7857143 87.2533333,94.5 87.2533333,96.8571429 C87.2533333,99.2142857 87.68,102.214286 88.32,103.5 C88.96,104.785714 93.6533333,105.642857 96,105.642857 C98.3466667,105.642857 101.333333,105.214286 102.613333,104.571429 C103.893333,103.928571 104.746667,99.2142857 104.746667,96.8571429 C104.746667,94.5 103.68,89.5714286 102.613333,89.1428571 L102.613333,89.1428571 Z" id="Shape"></path>
                    <path d="M102.613333,111 C101.333333,110.357143 98.56,109.928571 96,109.928571 C93.44,109.928571 90.6666667,110.357143 89.3866667,111 C88.1066667,111.642857 87.2533333,116.357143 87.2533333,118.714286 C87.2533333,121.071429 87.68,124.071429 88.32,125.357143 C88.96,126.642857 93.6533333,127.5 96,127.5 C98.3466667,127.5 101.333333,127.071429 102.613333,126.428571 C103.893333,125.785714 104.746667,121.071429 104.746667,118.714286 C104.746667,116.357143 103.68,111.642857 102.613333,111 L102.613333,111 Z" id="Shape"></path>
                    <path d="M66.3466667,81.6428571 C66.9866667,82.9285714 71.68,83.7857143 74.0266667,83.7857143 C76.3733333,83.7857143 81.28,82.7142857 81.7066667,81.6428571 C82.1333333,80.5714286 82.7733333,77.5714286 82.7733333,75 C82.7733333,72.4285714 82.3466667,69.6428571 81.7066667,68.3571429 C81.0666667,67.0714286 76.3733333,66.2142857 74.0266667,66.2142857 C71.68,66.2142857 68.6933333,66.6428571 67.4133333,67.2857143 C66.1333333,67.9285714 65.28,72.6428571 65.28,75 C65.28,77.3571429 65.92,80.3571429 66.3466667,81.6428571 L66.3466667,81.6428571 Z" id="Shape"></path>
                    <path d="M22.8266667,81.6428571 C23.4666667,82.9285714 28.16,83.7857143 30.5066667,83.7857143 C32.8533333,83.7857143 35.84,83.3571429 37.12,82.7142857 C38.4,82.0714286 39.2533333,77.3571429 39.2533333,75 C39.2533333,72.6428571 38.1866667,67.7142857 37.12,67.2857143 C35.84,66.6428571 33.0666667,66.2142857 30.5066667,66.2142857 C27.9466667,66.2142857 25.1733333,66.6428571 23.8933333,67.2857143 C22.6133333,67.9285714 21.76,72.6428571 21.76,75 C21.76,77.3571429 22.1866667,80.3571429 22.8266667,81.6428571 L22.8266667,81.6428571 Z" id="Shape"></path>
                    <path d="M22.8266667,59.5714286 C23.4666667,60.8571429 28.16,61.7142857 30.5066667,61.7142857 C32.8533333,61.7142857 37.76,60.6428571 38.1866667,59.5714286 C38.8266667,58.2857143 39.2533333,55.5 39.2533333,52.9285714 C39.2533333,50.3571429 38.8266667,47.5714286 38.1866667,46.2857143 C37.5466667,45 32.8533333,44.1428571 30.5066667,44.1428571 C28.16,44.1428571 25.1733333,44.5714286 23.8933333,45.2142857 C22.6133333,45.8571429 21.76,50.5714286 21.76,52.9285714 C21.76,55.2857143 22.1866667,58.5 22.8266667,59.5714286 L22.8266667,59.5714286 Z" id="Shape"></path>
                    <path d="M66.3466667,59.5714286 C66.9866667,60.8571429 71.68,61.7142857 74.0266667,61.7142857 C76.3733333,61.7142857 79.36,61.2857143 80.64,60.6428571 C81.92,60 82.7733333,55.2857143 82.7733333,52.9285714 C82.7733333,50.5714286 82.3466667,47.5714286 81.7066667,46.2857143 C81.0666667,45 76.3733333,44.1428571 74.0266667,44.1428571 C71.68,44.1428571 66.7733333,45.2142857 66.3466667,46.2857143 C65.92,47.3571429 65.28,50.3571429 65.28,52.9285714 C65.28,55.5 65.92,58.5 66.3466667,59.5714286 L66.3466667,59.5714286 Z" id="Shape"></path>
                    <path d="M65.4933333,31.0714286 C65.4933333,33.4285714 66.56,38.3571429 67.6266667,38.7857143 C68.9066667,39.4285714 71.68,39.8571429 74.24,39.8571429 C76.8,39.8571429 79.5733333,39.4285714 80.8533333,38.7857143 C82.1333333,38.1428571 82.9866667,33.4285714 82.9866667,31.0714286 C82.9866667,28.7142857 82.56,25.7142857 81.92,24.4285714 C81.28,23.1428571 76.5866667,22.2857143 74.24,22.2857143 C71.8933333,22.2857143 68.9066667,22.7142857 67.6266667,23.3571429 C66.3466667,24 65.4933333,28.7142857 65.4933333,31.0714286 L65.4933333,31.0714286 Z" id="Shape"></path>
                    <path d="M23.8933333,39 C25.1733333,39.6428571 27.9466667,40.0714286 30.5066667,40.0714286 C33.0666667,40.0714286 35.84,39.6428571 37.12,39 C38.4,38.3571429 39.2533333,33.6428571 39.2533333,31.2857143 C39.2533333,28.9285714 38.8266667,25.7142857 38.4,24.6428571 C37.76,23.3571429 33.0666667,22.5 30.72,22.5 C28.3733333,22.5 25.3866667,22.9285714 24.1066667,23.5714286 C22.8266667,24.2142857 21.9733333,28.9285714 21.9733333,31.2857143 C21.9733333,33.6428571 22.8266667,38.3571429 23.8933333,39 L23.8933333,39 Z" id="Shape"></path>
                    <path d="M21.76,9.21428571 C21.76,11.5714286 22.1866667,14.5714286 22.8266667,15.8571429 C23.4666667,17.1428571 28.16,18 30.5066667,18 C32.8533333,18 37.76,16.9285714 38.1866667,15.8571429 C38.8266667,14.5714286 39.2533333,11.7857143 39.2533333,9.21428571 C39.2533333,6.64285714 38.8266667,3.85714286 38.1866667,2.57142857 C37.5466667,1.28571429 32.8533333,0.428571429 30.5066667,0.428571429 C28.16,0.428571429 25.1733333,0.857142857 23.8933333,1.5 C22.8266667,1.92857143 21.76,6.85714286 21.76,9.21428571 L21.76,9.21428571 Z" id="Shape"></path>
                    <path d="M0,31.0714286 C0,33.4285714 0.426666667,36.4285714 1.06666667,37.7142857 C1.70666667,39 6.4,39.8571429 8.74666667,39.8571429 C11.0933333,39.8571429 16,38.7857143 16.4266667,37.7142857 C16.8533333,36.6428571 17.4933333,33.6428571 17.4933333,31.0714286 C17.4933333,28.5 17.0666667,25.7142857 16.4266667,24.6428571 C15.7866667,23.5714286 11.0933333,22.5 8.74666667,22.5 C6.4,22.5 3.41333333,22.9285714 2.13333333,23.3571429 C1.06666667,24 0,28.7142857 0,31.0714286 L0,31.0714286 Z" id="Shape"></path>
                    <path d="M8.74666667,61.9285714 C11.0933333,61.9285714 14.08,61.5 15.36,60.8571429 C16.64,60.2142857 17.4933333,55.5 17.4933333,53.1428571 C17.4933333,50.7857143 16.4266667,45.8571429 15.36,45.4285714 C14.08,44.7857143 11.3066667,44.3571429 8.74666667,44.3571429 C6.18666667,44.3571429 3.41333333,44.7857143 2.13333333,45.2142857 C0.853333333,45.8571429 0,50.5714286 0,52.9285714 C0,55.2857143 0.426666667,58.2857143 1.06666667,59.5714286 C1.70666667,60.8571429 6.4,61.9285714 8.74666667,61.9285714 L8.74666667,61.9285714 Z" id="Shape"></path>
                    <path d="M60.16,68.3571429 C59.52,67.0714286 54.8266667,66.2142857 52.48,66.2142857 C50.1333333,66.2142857 47.1466667,66.6428571 45.8666667,67.2857143 C44.5866667,67.9285714 43.7333333,72.6428571 43.7333333,75 C43.7333333,77.3571429 44.16,80.3571429 44.8,81.6428571 C45.44,82.9285714 50.1333333,83.7857143 52.48,83.7857143 C54.8266667,83.7857143 59.7333333,82.7142857 60.16,81.6428571 C60.5866667,80.5714286 61.2266667,77.5714286 61.2266667,75 C61.2266667,72.4285714 60.5866667,69.6428571 60.16,68.3571429 L60.16,68.3571429 Z" id="Shape"></path>
                    <path d="M60.16,46.5 C59.52,45.2142857 54.8266667,44.3571429 52.48,44.3571429 C50.1333333,44.3571429 47.1466667,44.7857143 45.8666667,45.4285714 C44.5866667,46.0714286 43.7333333,50.7857143 43.7333333,53.1428571 C43.7333333,55.5 44.16,58.5 44.8,59.7857143 C45.44,61.0714286 50.1333333,61.9285714 52.48,61.9285714 C54.8266667,61.9285714 59.7333333,60.8571429 60.16,59.7857143 C60.5866667,58.7142857 61.2266667,55.7142857 61.2266667,53.1428571 C61.2266667,50.5714286 60.5866667,47.7857143 60.16,46.5 L60.16,46.5 Z" id="Shape"></path>
                    <path d="M60.16,24.6428571 C59.52,23.3571429 54.8266667,22.5 52.48,22.5 C50.1333333,22.5 45.2266667,23.5714286 44.8,24.6428571 C44.16,25.9285714 43.7333333,28.7142857 43.7333333,31.2857143 C43.7333333,33.8571429 44.16,36.6428571 44.8,37.9285714 C45.44,39.2142857 50.1333333,40.0714286 52.48,40.0714286 C54.8266667,40.0714286 57.8133333,39.6428571 59.0933333,39 C60.3733333,38.3571429 61.2266667,33.6428571 61.2266667,31.2857143 C61.2266667,28.9285714 60.5866667,25.7142857 60.16,24.6428571 L60.16,24.6428571 Z" id="Shape"></path>
                    <path d="M60.16,2.57142857 C59.52,1.28571429 54.8266667,0.428571429 52.48,0.428571429 C50.1333333,0.428571429 47.1466667,0.857142857 45.8666667,1.5 C44.5866667,2.14285714 43.7333333,6.85714286 43.7333333,9.21428571 C43.7333333,11.5714286 44.8,16.5 45.8666667,16.9285714 C46.9333333,17.3571429 49.92,18 52.48,18 C55.04,18 57.8133333,17.5714286 59.0933333,16.9285714 C60.3733333,16.2857143 61.2266667,11.5714286 61.2266667,9.21428571 C61.2266667,6.85714286 60.5866667,3.85714286 60.16,2.57142857 L60.16,2.57142857 Z" id="Shape"></path>
                    <path d="M58.88,89.1428571 C57.6,88.5 54.8266667,88.0714286 52.2666667,88.0714286 C49.7066667,88.0714286 46.9333333,88.5 45.6533333,89.1428571 C44.3733333,89.7857143 43.52,94.5 43.52,96.8571429 C43.52,99.2142857 43.9466667,102.214286 44.5866667,103.5 C45.2266667,104.785714 49.92,105.642857 52.2666667,105.642857 C54.6133333,105.642857 57.6,105.214286 58.88,104.571429 C60.16,103.928571 61.0133333,99.2142857 61.0133333,96.8571429 C61.0133333,94.5 60.16,89.5714286 58.88,89.1428571 L58.88,89.1428571 Z" id="Shape"></path>
                    <path d="M66.3466667,125.357143 C66.9866667,126.642857 71.68,127.5 74.0266667,127.5 C76.3733333,127.5 79.36,127.071429 80.64,126.428571 C81.92,125.785714 82.7733333,121.071429 82.7733333,118.714286 C82.7733333,116.357143 81.7066667,111.428571 80.64,111 C79.5733333,110.571429 76.5866667,109.928571 74.0266667,109.928571 C71.4666667,109.928571 68.6933333,110.357143 67.4133333,111 C66.1333333,111.642857 65.28,116.357143 65.28,118.714286 C65.28,121.071429 65.92,124.285714 66.3466667,125.357143 L66.3466667,125.357143 Z" id="Shape"></path>
                    <path d="M66.3466667,103.5 C66.9866667,104.785714 71.68,105.642857 74.0266667,105.642857 C76.3733333,105.642857 81.28,104.571429 81.7066667,103.5 C82.1333333,102.428571 82.7733333,99.4285714 82.7733333,96.8571429 C82.7733333,94.2857143 82.3466667,91.5 81.7066667,90.2142857 C81.0666667,88.9285714 76.3733333,88.0714286 74.0266667,88.0714286 C71.68,88.0714286 68.6933333,88.5 67.4133333,89.1428571 C66.1333333,89.7857143 65.28,94.5 65.28,96.8571429 C65.28,99.2142857 65.92,102.214286 66.3466667,103.5 L66.3466667,103.5 Z" id="Shape"></path>
                </g>
            </g>
        </g>
    </g>
</svg>