<?xml version="1.0" encoding="UTF-8" standalone="no"?>
<svg width="90px" height="64px" viewBox="0 0 90 64" version="1.1" xmlns="http://www.w3.org/2000/svg" xmlns:xlink="http://www.w3.org/1999/xlink">
    <!-- Generator: Sketch 3.6.1 (26313) - http://www.bohemiancoding.com/sketch -->
    <title>narwhal_rainbow</title>
    <desc>Created with Sketch.</desc>
    <defs></defs>
    <g id="Page-1" stroke="none" stroke-width="1" fill="none" fill-rule="evenodd">
        <g id="narwhal_rainbow" transform="translate(0.000000, -1.000000)" fill="#000000">
            <path d="M0.608,0.958 C0.608,0.958 5.066,11.516 7.572,17.168 C8.395,19.023 9.007,20.35 9.182,20.601 C9.73,21.387 10.885,21.878 13.014,20.601 C15.143,19.324 15.527,17.68 15.021,16.709 C14.867,16.413 13.92,15.314 12.58,13.824 C8.458,9.24 0.608,0.958 0.608,0.958 L0.608,0.958 Z" id="Shape"></path>
            <path d="M67.626,31.456 C72.097,38.747 75.898,47.745 80.991,51.264 C84.228,53.502 92.758,53.639 89.109,56.923 C88.071,57.857 81.036,58.655 81.036,58.655 C81.036,58.655 79.754,67.261 77.889,64.494 C75.061,60.298 67.978,51.057 61.292,50.829 C54.855,50.608 41.603,54.109 33.813,54.109 C24.476,54.109 16.286,51.746 10.167,47.646 C10.167,47.646 4.933,49.99 2.182,48.235 C1.035,47.504 5.14,43.464 5.14,43.464 C1.78,39.946 0,35.942 0,31.456 C0,18.945 15.139,8.803 33.813,8.803 C52.487,8.803 61.086,20.791 67.626,31.456 L67.626,31.456 Z M3.953,28.324 C3.298,28.324 2.767,28.855 2.767,29.51 C2.767,30.165 3.298,30.696 3.953,30.696 C4.608,30.696 5.139,30.165 5.139,29.51 C5.139,28.855 4.608,28.324 3.953,28.324 L3.953,28.324 Z M22.197,28.324 C21.542,28.324 21.011,28.855 21.011,29.51 C21.011,30.165 21.542,30.696 22.197,30.696 C22.852,30.696 23.383,30.165 23.383,29.51 C23.383,28.855 22.852,28.324 22.197,28.324 L22.197,28.324 Z M13.202,20.914 C15.517,19.525 15.935,17.673 15.345,16.54 C15.245,16.348 14.939,15.899 12.913,13.647 L12.246,14.008 C14.159,16.134 14.627,16.74 14.698,16.877 C15.136,17.716 14.737,19.142 12.827,20.288 C11.251,21.233 10.095,21.268 9.483,20.392 C9.4,20.274 9.044,19.59 7.865,16.932 L7.24,17.448 C8.48,20.244 8.772,20.65 8.885,20.81 C9.133,21.165 9.697,21.744 10.735,21.744 C11.368,21.744 12.178,21.528 13.202,20.914 L13.202,20.914 Z M17.728,36.504 C17.728,36.202 17.483,35.956 17.181,35.956 C16.879,35.956 16.634,36.202 16.634,36.504 C16.634,37.674 15.151,38.663 13.396,38.663 C11.641,38.663 10.157,37.674 10.157,36.504 C10.157,36.202 9.912,35.956 9.61,35.956 C9.308,35.956 9.063,36.202 9.063,36.504 C9.063,38.298 11.007,39.758 13.396,39.758 C15.784,39.758 17.728,38.298 17.728,36.504 L17.728,36.504 Z M34.479,43.766 C34.753,43.639 34.874,43.314 34.747,43.039 C34.62,42.764 34.295,42.643 34.02,42.771 C33.99,42.785 30.912,44.18 27.452,43.834 C27.252,43.813 26.78,43.743 26.707,43.521 C26.49,42.86 28.022,40.904 29.588,39.493 C29.812,39.29 29.831,38.944 29.628,38.72 C29.426,38.495 29.08,38.477 28.855,38.68 C27.97,39.477 25.124,42.206 25.667,43.864 C25.805,44.285 26.208,44.811 27.343,44.925 C27.767,44.967 28.184,44.987 28.592,44.987 C31.789,44.985 34.357,43.821 34.479,43.766 L34.479,43.766 Z" id="Shape"></path>
            <path id="Shape" d="M7.462,8 L3.711,8 L3.555,8 L7.122,8 L7.462,8 Z"></path>
        </g>
    </g>
</svg>